<mxfile host="65bd71144e">
    <diagram id="QfJO7KM82MZYqyxudxrP" name="Page-1">
        <mxGraphModel dx="985" dy="525" grid="1" gridSize="10" guides="1" tooltips="1" connect="1" arrows="0" fold="1" page="1" pageScale="1" pageWidth="827" pageHeight="1169" background="#ffffff" math="0" shadow="0">
            <root>
                <mxCell id="0"/>
                <mxCell id="1" parent="0"/>
                <mxCell id="23" value="" style="rounded=0;whiteSpace=wrap;html=1;labelBackgroundColor=none;strokeColor=#000000;strokeWidth=1;fontColor=#000000;fillColor=none;" vertex="1" parent="1">
                    <mxGeometry x="120" y="40" width="430" height="280" as="geometry"/>
                </mxCell>
                <mxCell id="2" value="プレイヤー" style="shape=umlActor;verticalLabelPosition=bottom;verticalAlign=top;html=1;strokeColor=#000000;fillColor=#F3EFFA;strokeWidth=2;fontColor=#000000;" vertex="1" parent="1">
                    <mxGeometry x="210" y="210" width="30" height="60" as="geometry"/>
                </mxCell>
                <mxCell id="3" value="&lt;font color=&quot;#000000&quot;&gt;リバーシ&lt;br&gt;アプリケーション&lt;/font&gt;" style="ellipse;whiteSpace=wrap;html=1;align=center;strokeColor=#000000;strokeWidth=2;fillColor=#F3EFFA;" vertex="1" parent="1">
                    <mxGeometry x="340" y="200" width="150" height="80" as="geometry"/>
                </mxCell>
                <mxCell id="7" value="" style="endArrow=none;html=1;rounded=0;fontColor=#000000;strokeColor=#000000;strokeWidth=2;" edge="1" parent="1">
                    <mxGeometry relative="1" as="geometry">
                        <mxPoint x="250" y="239.5" as="sourcePoint"/>
                        <mxPoint x="340" y="239.5" as="targetPoint"/>
                    </mxGeometry>
                </mxCell>
                <mxCell id="19" value="Webアプリ" style="shape=note;whiteSpace=wrap;html=1;backgroundOutline=1;darkOpacity=0.05;labelBackgroundColor=none;strokeColor=#000000;strokeWidth=2;fontColor=#000000;fillColor=#F3EFFA;" vertex="1" parent="1">
                    <mxGeometry x="390" y="70" width="130" height="80" as="geometry"/>
                </mxCell>
                <mxCell id="20" value="1人で黒白交互に打つ" style="shape=note;whiteSpace=wrap;html=1;backgroundOutline=1;darkOpacity=0.05;labelBackgroundColor=none;strokeColor=#000000;strokeWidth=2;fontColor=#000000;fillColor=#F3EFFA;" vertex="1" parent="1">
                    <mxGeometry x="150" y="70" width="150" height="80" as="geometry"/>
                </mxCell>
                <mxCell id="21" value="" style="endArrow=none;dashed=1;html=1;strokeColor=#000000;strokeWidth=2;fontColor=#000000;exitX=0.776;exitY=0.093;exitDx=0;exitDy=0;exitPerimeter=0;" edge="1" parent="1" source="3" target="19">
                    <mxGeometry width="50" height="50" relative="1" as="geometry">
                        <mxPoint x="500" y="210" as="sourcePoint"/>
                        <mxPoint x="550" y="160" as="targetPoint"/>
                    </mxGeometry>
                </mxCell>
                <mxCell id="22" value="" style="endArrow=none;dashed=1;html=1;strokeColor=#000000;strokeWidth=2;fontColor=#000000;exitX=0.5;exitY=0;exitDx=0;exitDy=0;exitPerimeter=0;" edge="1" parent="1" source="2" target="20">
                    <mxGeometry width="50" height="50" relative="1" as="geometry">
                        <mxPoint x="230" y="180" as="sourcePoint"/>
                        <mxPoint x="370" y="160" as="targetPoint"/>
                    </mxGeometry>
                </mxCell>
            </root>
        </mxGraphModel>
    </diagram>
</mxfile>